# xmcd CD database file
#
# Track frame offsets:
#	150
#	32552
#	59362
#	91272
#	121807
#	142142
#
# Disc length: 2264 seconds
#
# Revision: 2
# Processed by: cddbd v1.5.2PL0 Copyright (c) Steve Scherf et al.
# Submitted via: CDex 1.81
#
DISCID=4c08d606
DTITLE=Sadao Watanabe - Elis
DYEAR=1988
DGENRE=Samba
TTITLE0=Quilombo
TTITLE1=Passo De Doria
TTITLE2=Elis
TTITLE3=Manhattan Paulista
TTITLE4=O Que Passou Passou
TTITLE5=Paciencia
EXTD=YEAR: 1988
EXTT0=
EXTT1=
EXTT2=
EXTT3=
EXTT4=
EXTT5=
PLAYORDER=
